<?xml version="1.0" encoding="UTF-8"?>
<!DOCTYPE svg PUBLIC "-//W3C//DTD SVG 1.1//EN" "http://www.w3.org/Graphics/SVG/1.1/DTD/svg11.dtd">
<!-- Creator: CorelDRAW X7 -->
<svg xmlns="http://www.w3.org/2000/svg" xml:space="preserve" width="208.172mm" height="89.3574mm" version="1.1" style="shape-rendering:geometricPrecision; text-rendering:geometricPrecision; image-rendering:optimizeQuality; fill-rule:evenodd; clip-rule:evenodd"
viewBox="0 0 20817 8936"
 xmlns:xlink="http://www.w3.org/1999/xlink">
 <defs>
  <style type="text/css">
   <![CDATA[
    .fil0 {fill:#ED3237}
    .fil1 {fill:#D23938;fill-rule:nonzero}
    .fil2 {fill:#201E1E;fill-rule:nonzero}
   ]]>
  </style>
 </defs>
 <g id="Layer_x0020_1">
  <metadata id="CorelCorpID_0Corel-Layer"/>
  <g id="_2220069785168">
   <path class="fil0" d="M4265 5595c-45,-452 -14,-2170 -90,-2990 -22,-242 -3,-568 -292,-319 -244,211 -370,691 -789,1230 -82,107 -54,103 -169,24l-96 -72c-114,-85 -80,-88 -177,16 -171,184 -184,167 -613,166 -334,-2 -666,8 -999,12 131,56 376,40 641,41 158,0 324,-2 480,-11 98,-6 205,22 291,9 133,-19 234,-84 311,-126 92,128 134,284 219,269 282,-49 599,-823 900,-1110 -7,730 -82,3834 156,4241 315,35 293,-96 400,-380 221,-585 1183,-4572 1183,-4573 56,989 130,6415 481,6809 423,476 508,-812 543,-1054 80,-569 132,-1091 208,-1653 145,-1082 348,-2085 545,-3122 3,221 136,847 308,990 119,-51 185,-260 244,-404 24,-58 18,-76 78,-41 105,59 46,160 88,165 21,3 114,-135 200,-137 65,0 128,136 150,138 602,73 1422,-9 1867,-5 -66,-56 -95,-60 -277,-64l-950 2 -537 -4c-9,-1 -122,-121 -241,-134 -59,-6 -172,92 -175,91 -29,-13 -57,-159 -138,-196 -62,-29 -52,-26 -87,27 -67,102 -153,241 -215,312 -108,-255 -150,-973 -171,-1310 -14,-233 21,-291 -129,-403 -127,89 -74,23 -156,205l-261 764c-304,1010 -561,2442 -637,3484 -206,-1214 -357,-3641 -363,-4975 -1,-284 -6,-599 12,-880 8,-133 146,-813 -146,-578 -381,307 -1494,4774 -1597,5546z"/>
   <path class="fil1" d="M8432 5069l0 1251c0,288 -39,484 -117,588 -78,104 -216,156 -414,156 -196,0 -334,-53 -413,-159 -78,-106 -118,-301 -118,-590l0 -1246c0,-288 39,-485 116,-588 77,-104 216,-155 415,-155 196,0 334,53 413,159 79,106 118,300 118,584zm-328 -78c0,-155 -15,-259 -46,-316 -30,-56 -82,-83 -157,-83 -76,0 -130,29 -161,89 -31,59 -47,162 -47,310l0 1406c0,156 16,262 46,318 31,56 84,84 162,84 75,0 127,-29 157,-87 31,-57 46,-163 46,-315l0 -1406zm1687 78l0 1251c0,288 -39,484 -117,588 -77,104 -216,156 -413,156 -196,0 -334,-53 -414,-159 -79,-106 -117,-301 -117,-590l0 -1246c0,-288 38,-485 115,-588 77,-104 216,-155 416,-155 196,0 334,53 413,159 78,106 117,300 117,584zm-327 -78c0,-155 -16,-259 -46,-316 -31,-56 -83,-83 -157,-83 -77,0 -131,29 -162,89 -31,59 -47,162 -47,310l0 1406c0,156 16,262 46,318 31,56 85,84 163,84 74,0 126,-29 157,-87 30,-57 46,-163 46,-315l0 -1406zm1369 0c0,-148 -16,-251 -47,-310 -31,-60 -85,-89 -161,-89 -78,0 -133,28 -165,86 -32,58 -49,162 -49,313l0 1406c0,152 17,258 49,315 32,58 87,87 165,87 76,0 130,-30 161,-90 31,-59 47,-163 47,-312l0 -1406zm0 -1737l318 0 0 3747 -293 0 -25 -159c-42,73 -95,129 -159,167 -63,36 -137,55 -222,55 -131,0 -223,-44 -279,-133 -56,-89 -84,-244 -84,-466l0 -1540c0,-222 28,-377 84,-466 56,-89 148,-133 279,-133 85,0 159,19 223,57 65,38 118,93 158,165l0 -1294zm1519 1737l0 147 -313 0 0 -147c0,-162 -12,-268 -34,-321 -22,-52 -65,-78 -126,-78 -54,0 -93,24 -115,72 -24,48 -35,130 -35,245l0 104c0,56 11,111 32,166 21,54 56,112 102,173l380 503c42,59 74,117 97,179 23,60 34,118 34,173l0 249c0,225 -36,382 -109,473 -74,89 -199,135 -375,135 -183,0 -311,-48 -382,-143 -71,-94 -107,-269 -107,-523l0 -224 310 0 0 224c0,165 13,274 37,324 25,52 69,77 131,77 64,0 111,-25 137,-77 27,-50 41,-140 41,-266l0 -99c0,-143 -52,-280 -155,-412l-8 -11 -368 -498c-39,-52 -66,-105 -84,-156 -16,-52 -25,-110 -25,-172l0 -189c0,-214 35,-366 108,-458 71,-90 192,-135 359,-135 175,0 296,48 365,143 68,94 103,268 103,522zm596 -1305l0 702 239 0 0 266 -239 0 0 1941c0,73 14,123 42,151 28,28 78,42 152,42l45 0 0 271c-18,1 -37,2 -57,3 -19,1 -47,2 -83,2 -159,0 -267,-39 -324,-115 -59,-77 -87,-249 -87,-514l0 -1781 -172 0 0 -266 172 0 0 -575 312 -127zm1442 1383l0 1251c0,288 -39,484 -117,588 -78,104 -216,156 -414,156 -196,0 -334,-53 -412,-159 -79,-106 -118,-301 -118,-590l0 -1246c0,-288 38,-485 115,-588 77,-104 216,-155 415,-155 197,0 334,53 413,159 79,106 118,300 118,584zm-328 -78c0,-155 -15,-259 -46,-316 -30,-56 -82,-83 -157,-83 -76,0 -130,29 -161,89 -31,59 -47,162 -47,310l0 1406c0,156 16,262 46,318 31,56 85,84 162,84 75,0 127,-29 157,-87 31,-57 46,-163 46,-315l0 -1406zm1599 78l0 168 -328 0 0 -246c0,-171 -11,-281 -35,-329 -22,-47 -64,-70 -124,-70 -62,0 -105,26 -128,79 -23,54 -36,160 -36,320l0 1406c0,162 13,270 37,322 25,53 68,80 131,80 60,0 100,-25 122,-73 22,-48 33,-158 33,-329l0 -281 328 0 0 204c0,288 -35,484 -107,588 -73,104 -199,156 -380,156 -180,0 -305,-53 -378,-160 -72,-106 -108,-303 -108,-589l0 -1246c0,-289 35,-485 107,-588 71,-104 197,-155 379,-155 179,0 305,53 378,159 73,106 109,300 109,584zm252 -1815l312 0 0 2243 452 -1109 298 0 -468 1109 519 1504 -316 0 -485 -1431 0 1431 -312 0 0 -3747z"/>
   <polygon class="fil1" points="11422,3633 15643,3633 15643,3699 11422,3699 "/>
   <polygon class="fil1" points="16596,3633 20817,3633 20817,3699 16596,3699 "/>
   <polygon class="fil1" points="0,7743 5524,7743 5524,7810 0,7810 "/>
   <polygon class="fil1" points="6875,7743 9555,7743 9555,7810 6875,7810 "/>
   <polygon class="fil2" points="14854,7743 16838,7743 16838,7810 14854,7810 "/>
   <polygon class="fil2" points="18201,7743 20186,7743 20186,7810 18201,7810 "/>
   <polygon class="fil2" points="16817,7750 17137,7487 17188,7444 17191,7511 17200,7683 17256,7426 17322,7431 17338,7680 17387,7348 17453,7349 17515,7984 17612,7073 17678,7075 17745,8030 17837,7485 17903,7484 17955,7746 18029,7586 18092,7595 18110,7716 18296,7743 18286,7810 18076,7778 18052,7774 18048,7750 18042,7715 17973,7867 17910,7860 17873,7675 17765,8317 17699,8314 17638,7456 17547,8315 17481,8315 17414,7627 17358,8004 17292,8002 17271,7672 17213,7941 17146,7935 17128,7580 16859,7802 "/>
   <path class="fil2" d="M10161 8259l0 -957 126 0 0 844 471 0 0 113 -597 0zm689 -346c0,-129 36,-224 107,-285 60,-52 132,-77 218,-77 95,0 173,31 234,93 60,62 90,149 90,258 0,89 -13,160 -40,211 -27,50 -66,90 -117,118 -51,29 -107,42 -167,42 -97,0 -175,-31 -235,-93 -60,-62 -90,-151 -90,-267zm120 0c0,88 20,154 58,198 39,44 88,66 147,66 58,0 107,-22 146,-66 38,-44 58,-112 58,-202 0,-86 -20,-151 -59,-194 -39,-45 -87,-67 -145,-67 -59,0 -108,22 -147,66 -38,44 -58,110 -58,199zm1119 346l0 -103c-53,78 -126,117 -219,117 -40,0 -78,-7 -114,-23 -35,-16 -61,-35 -78,-59 -18,-23 -30,-53 -37,-87 -4,-23 -7,-60 -7,-109l0 -429 118 0 0 384c0,60 2,102 7,123 7,31 23,55 47,72 24,18 53,27 88,27 35,0 68,-9 99,-27 31,-18 52,-43 66,-74 12,-31 19,-76 19,-135l0 -370 117 0 0 693 -106 0zm291 0l0 -693 105 0 0 98c51,-76 125,-113 220,-113 42,0 81,7 115,22 35,15 62,35 79,59 17,25 30,53 37,87 4,22 6,60 6,114l0 426 -118 0 0 -421c0,-49 -4,-84 -13,-108 -9,-23 -25,-42 -49,-57 -23,-13 -50,-21 -81,-21 -50,0 -93,16 -129,48 -37,32 -55,92 -55,180l0 379 -117 0zm721 57l113 16c5,36 19,61 40,77 30,22 69,33 120,33 54,0 96,-11 126,-33 30,-21 50,-52 60,-91 6,-24 9,-73 9,-150 -52,61 -116,91 -192,91 -96,0 -170,-34 -222,-103 -52,-69 -78,-151 -78,-247 0,-66 12,-127 35,-183 25,-56 59,-99 105,-129 45,-31 98,-46 160,-46 82,0 149,33 202,100l0 -85 108 0 0 598c0,108 -11,184 -33,230 -21,44 -56,80 -104,106 -47,26 -106,39 -176,39 -82,0 -149,-18 -199,-55 -51,-37 -76,-93 -74,-168zm96 -416c0,91 18,157 54,199 37,41 82,62 136,62 54,0 99,-20 136,-62 36,-41 55,-106 55,-195 0,-85 -19,-149 -57,-192 -37,-42 -83,-64 -136,-64 -52,0 -96,21 -133,64 -37,42 -55,105 -55,188zm1142 134l121 17c-19,70 -55,125 -106,164 -52,39 -118,58 -198,58 -101,0 -182,-31 -241,-93 -59,-62 -88,-150 -88,-262 0,-116 30,-207 90,-270 59,-65 137,-97 232,-97 93,0 168,31 227,94 58,63 88,152 88,266 0,7 0,17 -1,31l-516 0c4,76 26,135 65,175 38,40 86,60 144,60 43,0 80,-11 110,-34 30,-23 54,-59 73,-109zm-385 -188l385 0c-4,-58 -19,-102 -44,-131 -37,-45 -85,-68 -145,-68 -54,0 -99,18 -136,54 -36,36 -57,84 -60,145z"/>
  </g>
 </g>
</svg>
